<svg xmlns="http://www.w3.org/2000/svg" xmlns:xlink="http://www.w3.org/1999/xlink" width="2000" zoomAndPan="magnify" viewBox="0 0 1500 1499.999933" height="2000" preserveAspectRatio="xMidYMid meet" version="1.0"><defs><clipPath id="c14a50b4e2"><path d="M 0.753906 0.355469 L 1345.246094 0.355469 L 1345.246094 1358 L 0.753906 1358 Z M 0.753906 0.355469 " clip-rule="nonzero"/></clipPath><clipPath id="f191bc0fe8"><path d="M 673 0.355469 C 301.730469 0.355469 0.753906 304.195312 0.753906 679 C 0.753906 1053.804688 301.730469 1357.644531 673 1357.644531 C 1044.269531 1357.644531 1345.246094 1053.804688 1345.246094 679 C 1345.246094 304.195312 1044.269531 0.355469 673 0.355469 Z M 673 0.355469 " clip-rule="nonzero"/></clipPath><clipPath id="b1e7c61753"><path d="M 0.753906 0.355469 L 1345.246094 0.355469 L 1345.246094 1356 L 0.753906 1356 Z M 0.753906 0.355469 " clip-rule="nonzero"/></clipPath><clipPath id="a01bb22301"><path d="M 673 0.355469 C 301.730469 0.355469 0.753906 304.195312 0.753906 679 C 0.753906 1053.804688 301.730469 1357.644531 673 1357.644531 C 1044.269531 1357.644531 1345.246094 1053.804688 1345.246094 679 C 1345.246094 304.195312 1044.269531 0.355469 673 0.355469 Z M 673 0.355469 " clip-rule="nonzero"/></clipPath><clipPath id="e1b0cc7bfd"><rect x="0" width="1346" y="0" height="1358"/></clipPath><clipPath id="bd32017f9d"><path d="M 13.003906 20.878906 L 1325.5 20.878906 L 1325.5 1333.371094 L 13.003906 1333.371094 Z M 13.003906 20.878906 " clip-rule="nonzero"/></clipPath><clipPath id="12966190d2"><path d="M 669.25 20.878906 C 306.816406 20.878906 13.003906 314.691406 13.003906 677.125 C 13.003906 1039.5625 306.816406 1333.371094 669.25 1333.371094 C 1031.6875 1333.371094 1325.5 1039.5625 1325.5 677.125 C 1325.5 314.691406 1031.6875 20.878906 669.25 20.878906 Z M 669.25 20.878906 " clip-rule="nonzero"/></clipPath><clipPath id="d60f3bf511"><path d="M 0.00390625 0.878906 L 1312.5 0.878906 L 1312.5 1313.371094 L 0.00390625 1313.371094 Z M 0.00390625 0.878906 " clip-rule="nonzero"/></clipPath><clipPath id="dff39c5b66"><path d="M 656.25 0.878906 C 293.816406 0.878906 0.00390625 294.691406 0.00390625 657.125 C 0.00390625 1019.5625 293.816406 1313.371094 656.25 1313.371094 C 1018.6875 1313.371094 1312.5 1019.5625 1312.5 657.125 C 1312.5 294.691406 1018.6875 0.878906 656.25 0.878906 Z M 656.25 0.878906 " clip-rule="nonzero"/></clipPath><clipPath id="bf6f76d1cf"><rect x="0" width="1313" y="0" height="1314"/></clipPath><clipPath id="e6a1e764ad"><path d="M 82.355469 82.730469 L 1263.644531 82.730469 L 1263.644531 1276 L 82.355469 1276 Z M 82.355469 82.730469 " clip-rule="nonzero"/></clipPath><clipPath id="b3b095a5e2"><path d="M 673 82.730469 C 346.796875 82.730469 82.355469 349.691406 82.355469 679 C 82.355469 1008.308594 346.796875 1275.269531 673 1275.269531 C 999.203125 1275.269531 1263.644531 1008.308594 1263.644531 679 C 1263.644531 349.691406 999.203125 82.730469 673 82.730469 Z M 673 82.730469 " clip-rule="nonzero"/></clipPath><clipPath id="4deb39c566"><path d="M 0.355469 0.730469 L 1181.644531 0.730469 L 1181.644531 1192 L 0.355469 1192 Z M 0.355469 0.730469 " clip-rule="nonzero"/></clipPath><clipPath id="4b6c03fe46"><path d="M 591 0.730469 C 264.796875 0.730469 0.355469 267.691406 0.355469 597 C 0.355469 926.308594 264.796875 1193.269531 591 1193.269531 C 917.203125 1193.269531 1181.644531 926.308594 1181.644531 597 C 1181.644531 267.691406 917.203125 0.730469 591 0.730469 Z M 591 0.730469 " clip-rule="nonzero"/></clipPath><clipPath id="4399f10c16"><rect x="0" width="1182" y="0" height="1194"/></clipPath><clipPath id="436acbd338"><path d="M 104.859375 105.234375 L 1230.058594 105.234375 L 1230.058594 1242 L 104.859375 1242 Z M 104.859375 105.234375 " clip-rule="nonzero"/></clipPath><clipPath id="ad00bb13b7"><path d="M 667.457031 105.234375 C 356.742188 105.234375 104.859375 359.519531 104.859375 673.191406 C 104.859375 986.867188 356.742188 1241.148438 667.457031 1241.148438 C 978.175781 1241.148438 1230.058594 986.867188 1230.058594 673.191406 C 1230.058594 359.519531 978.175781 105.234375 667.457031 105.234375 Z M 667.457031 105.234375 " clip-rule="nonzero"/></clipPath><clipPath id="79884ba6b0"><path d="M 0.859375 0.234375 L 1126.058594 0.234375 L 1126.058594 1135 L 0.859375 1135 Z M 0.859375 0.234375 " clip-rule="nonzero"/></clipPath><clipPath id="73cd2afede"><path d="M 563.457031 0.234375 C 252.742188 0.234375 0.859375 254.519531 0.859375 568.191406 C 0.859375 881.867188 252.742188 1136.148438 563.457031 1136.148438 C 874.175781 1136.148438 1126.058594 881.867188 1126.058594 568.191406 C 1126.058594 254.519531 874.175781 0.234375 563.457031 0.234375 Z M 563.457031 0.234375 " clip-rule="nonzero"/></clipPath><clipPath id="acebf7745a"><rect x="0" width="1127" y="0" height="1137"/></clipPath><clipPath id="1cabef299b"><path d="M 319.730469 346.617188 L 1026.269531 346.617188 L 1026.269531 1053.15625 L 319.730469 1053.15625 Z M 319.730469 346.617188 " clip-rule="nonzero"/></clipPath><clipPath id="0cbc27d5df"><path d="M 673 346.617188 C 477.894531 346.617188 319.730469 504.78125 319.730469 699.886719 C 319.730469 894.992188 477.894531 1053.15625 673 1053.15625 C 868.105469 1053.15625 1026.269531 894.992188 1026.269531 699.886719 C 1026.269531 504.78125 868.105469 346.617188 673 346.617188 Z M 673 346.617188 " clip-rule="nonzero"/></clipPath><clipPath id="5db48c5b17"><path d="M 0.730469 0.617188 L 707.269531 0.617188 L 707.269531 707.15625 L 0.730469 707.15625 Z M 0.730469 0.617188 " clip-rule="nonzero"/></clipPath><clipPath id="076810f9a9"><path d="M 354 0.617188 C 158.894531 0.617188 0.730469 158.78125 0.730469 353.886719 C 0.730469 548.992188 158.894531 707.15625 354 707.15625 C 549.105469 707.15625 707.269531 548.992188 707.269531 353.886719 C 707.269531 158.78125 549.105469 0.617188 354 0.617188 Z M 354 0.617188 " clip-rule="nonzero"/></clipPath><clipPath id="171a30d2fa"><rect x="0" width="708" y="0" height="708"/></clipPath><clipPath id="7b4811489e"><path d="M 394.433594 346.617188 L 951.566406 346.617188 L 951.566406 903.753906 L 394.433594 903.753906 Z M 394.433594 346.617188 " clip-rule="nonzero"/></clipPath><clipPath id="080b89c4bc"><path d="M 673 346.617188 C 519.152344 346.617188 394.433594 471.335938 394.433594 625.183594 C 394.433594 779.035156 519.152344 903.753906 673 903.753906 C 826.847656 903.753906 951.566406 779.035156 951.566406 625.183594 C 951.566406 471.335938 826.847656 346.617188 673 346.617188 Z M 673 346.617188 " clip-rule="nonzero"/></clipPath><clipPath id="ff5849d3b6"><path d="M 0.433594 0.617188 L 557.566406 0.617188 L 557.566406 557.753906 L 0.433594 557.753906 Z M 0.433594 0.617188 " clip-rule="nonzero"/></clipPath><clipPath id="2df9053750"><path d="M 279 0.617188 C 125.152344 0.617188 0.433594 125.335938 0.433594 279.183594 C 0.433594 433.035156 125.152344 557.753906 279 557.753906 C 432.847656 557.753906 557.566406 433.035156 557.566406 279.183594 C 557.566406 125.335938 432.847656 0.617188 279 0.617188 Z M 279 0.617188 " clip-rule="nonzero"/></clipPath><clipPath id="faed1f11df"><rect x="0" width="558" y="0" height="558"/></clipPath><clipPath id="e69b47d875"><path d="M 546.625 277.761719 L 791.878906 277.761719 L 791.878906 523.019531 L 546.625 523.019531 Z M 546.625 277.761719 " clip-rule="nonzero"/></clipPath><clipPath id="001cd1b800"><path d="M 669.25 277.761719 C 601.527344 277.761719 546.625 332.664062 546.625 400.390625 C 546.625 468.117188 601.527344 523.019531 669.25 523.019531 C 736.976562 523.019531 791.878906 468.117188 791.878906 400.390625 C 791.878906 332.664062 736.976562 277.761719 669.25 277.761719 Z M 669.25 277.761719 " clip-rule="nonzero"/></clipPath><clipPath id="0ab4a72d70"><path d="M 0.625 0.761719 L 245.878906 0.761719 L 245.878906 246.019531 L 0.625 246.019531 Z M 0.625 0.761719 " clip-rule="nonzero"/></clipPath><clipPath id="178afa0aba"><path d="M 123.25 0.761719 C 55.527344 0.761719 0.625 55.664062 0.625 123.390625 C 0.625 191.117188 55.527344 246.019531 123.25 246.019531 C 190.976562 246.019531 245.878906 191.117188 245.878906 123.390625 C 245.878906 55.664062 190.976562 0.761719 123.25 0.761719 Z M 123.25 0.761719 " clip-rule="nonzero"/></clipPath><clipPath id="8e73af06ce"><rect x="0" width="246" y="0" height="247"/></clipPath><clipPath id="068949ee03"><path d="M 579.261719 307.5625 L 759.242188 307.5625 L 759.242188 487.542969 L 579.261719 487.542969 Z M 579.261719 307.5625 " clip-rule="nonzero"/></clipPath><clipPath id="7874eb50a9"><path d="M 669.25 307.5625 C 619.550781 307.5625 579.261719 347.851562 579.261719 397.554688 C 579.261719 447.253906 619.550781 487.542969 669.25 487.542969 C 718.953125 487.542969 759.242188 447.253906 759.242188 397.554688 C 759.242188 347.851562 718.953125 307.5625 669.25 307.5625 Z M 669.25 307.5625 " clip-rule="nonzero"/></clipPath><clipPath id="dc82c4e991"><path d="M 0.261719 0.5625 L 180.242188 0.5625 L 180.242188 180.542969 L 0.261719 180.542969 Z M 0.261719 0.5625 " clip-rule="nonzero"/></clipPath><clipPath id="77785a6176"><path d="M 90.25 0.5625 C 40.550781 0.5625 0.261719 40.851562 0.261719 90.554688 C 0.261719 140.253906 40.550781 180.542969 90.25 180.542969 C 139.953125 180.542969 180.242188 140.253906 180.242188 90.554688 C 180.242188 40.851562 139.953125 0.5625 90.25 0.5625 Z M 90.25 0.5625 " clip-rule="nonzero"/></clipPath><clipPath id="a69a228294"><rect x="0" width="181" y="0" height="181"/></clipPath><clipPath id="50054d6c46"><path d="M 568.304688 299.441406 L 770.199219 299.441406 L 770.199219 501.339844 L 568.304688 501.339844 Z M 568.304688 299.441406 " clip-rule="nonzero"/></clipPath><clipPath id="408a9c9d56"><path d="M 669.25 299.441406 C 613.5 299.441406 568.304688 344.640625 568.304688 400.390625 C 568.304688 456.144531 613.5 501.339844 669.25 501.339844 C 725.003906 501.339844 770.199219 456.144531 770.199219 400.390625 C 770.199219 344.640625 725.003906 299.441406 669.25 299.441406 Z M 669.25 299.441406 " clip-rule="nonzero"/></clipPath><clipPath id="abe92400fe"><path d="M 0.304688 0.441406 L 202.199219 0.441406 L 202.199219 202.339844 L 0.304688 202.339844 Z M 0.304688 0.441406 " clip-rule="nonzero"/></clipPath><clipPath id="c4665c972f"><path d="M 101.25 0.441406 C 45.5 0.441406 0.304688 45.640625 0.304688 101.390625 C 0.304688 157.144531 45.5 202.339844 101.25 202.339844 C 157.003906 202.339844 202.199219 157.144531 202.199219 101.390625 C 202.199219 45.640625 157.003906 0.441406 101.25 0.441406 Z M 101.25 0.441406 " clip-rule="nonzero"/></clipPath><clipPath id="3b43249af4"><rect x="0" width="203" y="0" height="203"/></clipPath><clipPath id="d08106ffdc"><path d="M 595.171875 323.976562 L 743.332031 323.976562 L 743.332031 472.136719 L 595.171875 472.136719 Z M 595.171875 323.976562 " clip-rule="nonzero"/></clipPath><clipPath id="672837d96d"><path d="M 669.25 323.976562 C 628.335938 323.976562 595.171875 357.140625 595.171875 398.054688 C 595.171875 438.96875 628.335938 472.136719 669.25 472.136719 C 710.164062 472.136719 743.332031 438.96875 743.332031 398.054688 C 743.332031 357.140625 710.164062 323.976562 669.25 323.976562 Z M 669.25 323.976562 " clip-rule="nonzero"/></clipPath><clipPath id="95bb5bcd8f"><path d="M 0.171875 0.976562 L 148.332031 0.976562 L 148.332031 149.136719 L 0.171875 149.136719 Z M 0.171875 0.976562 " clip-rule="nonzero"/></clipPath><clipPath id="0aaffcf973"><path d="M 74.25 0.976562 C 33.335938 0.976562 0.171875 34.140625 0.171875 75.054688 C 0.171875 115.96875 33.335938 149.136719 74.25 149.136719 C 115.164062 149.136719 148.332031 115.96875 148.332031 75.054688 C 148.332031 34.140625 115.164062 0.976562 74.25 0.976562 Z M 74.25 0.976562 " clip-rule="nonzero"/></clipPath><clipPath id="2db7d5c249"><rect x="0" width="149" y="0" height="150"/></clipPath><clipPath id="a55594d70e"><rect x="0" width="1346" y="0" height="1361"/></clipPath></defs><g transform="matrix(1, 0, 0, 1, 77, 71)"><g clip-path="url(#a55594d70e)"><g clip-path="url(#c14a50b4e2)"><g clip-path="url(#f191bc0fe8)"><g transform="matrix(1, 0, 0, 1, 0, 0.000000000000113687)"><g clip-path="url(#e1b0cc7bfd)"><g clip-path="url(#b1e7c61753)"><g clip-path="url(#a01bb22301)"><path fill="#94c4ba" d="M 0.753906 0.355469 L 1345.246094 0.355469 L 1345.246094 1355.351562 L 0.753906 1355.351562 Z M 0.753906 0.355469 " fill-opacity="1" fill-rule="nonzero"/></g></g></g></g></g></g><g clip-path="url(#bd32017f9d)"><g clip-path="url(#12966190d2)"><g transform="matrix(1, 0, 0, 1, 13, 20)"><g clip-path="url(#bf6f76d1cf)"><g clip-path="url(#d60f3bf511)"><g clip-path="url(#dff39c5b66)"><path fill="#ffffff" d="M 0.00390625 0.878906 L 1312.5 0.878906 L 1312.5 1313.371094 L 0.00390625 1313.371094 Z M 0.00390625 0.878906 " fill-opacity="1" fill-rule="nonzero"/></g></g></g></g></g></g><g clip-path="url(#e6a1e764ad)"><g clip-path="url(#b3b095a5e2)"><g transform="matrix(1, 0, 0, 1, 82, 82)"><g clip-path="url(#4399f10c16)"><g clip-path="url(#4deb39c566)"><g clip-path="url(#4b6c03fe46)"><path fill="#94c4ba" d="M 0.355469 0.730469 L 1181.644531 0.730469 L 1181.644531 1191.25 L 0.355469 1191.25 Z M 0.355469 0.730469 " fill-opacity="1" fill-rule="nonzero"/></g></g></g></g></g></g><g clip-path="url(#436acbd338)"><g clip-path="url(#ad00bb13b7)"><g transform="matrix(1, 0, 0, 1, 104, 105)"><g clip-path="url(#acebf7745a)"><g clip-path="url(#79884ba6b0)"><g clip-path="url(#73cd2afede)"><path fill="#94c4ba" d="M 0.859375 0.234375 L 1126.058594 0.234375 L 1126.058594 1134.226562 L 0.859375 1134.226562 Z M 0.859375 0.234375 " fill-opacity="1" fill-rule="nonzero"/></g></g></g></g></g></g><g clip-path="url(#1cabef299b)"><g clip-path="url(#0cbc27d5df)"><g transform="matrix(1, 0, 0, 1, 319, 346)"><g clip-path="url(#171a30d2fa)"><g clip-path="url(#5db48c5b17)"><g clip-path="url(#076810f9a9)"><path fill="#ffffff" d="M 0.730469 0.617188 L 707.269531 0.617188 L 707.269531 707.15625 L 0.730469 707.15625 Z M 0.730469 0.617188 " fill-opacity="1" fill-rule="nonzero"/></g></g></g></g></g></g><g clip-path="url(#7b4811489e)"><g clip-path="url(#080b89c4bc)"><g transform="matrix(1, 0, 0, 1, 394, 346)"><g clip-path="url(#faed1f11df)"><g clip-path="url(#ff5849d3b6)"><g clip-path="url(#2df9053750)"><path fill="#94c4ba" d="M 0.433594 0.617188 L 557.566406 0.617188 L 557.566406 557.753906 L 0.433594 557.753906 Z M 0.433594 0.617188 " fill-opacity="1" fill-rule="nonzero"/></g></g></g></g></g></g><g clip-path="url(#e69b47d875)"><g clip-path="url(#001cd1b800)"><g transform="matrix(1, 0, 0, 1, 546, 277)"><g clip-path="url(#8e73af06ce)"><g clip-path="url(#0ab4a72d70)"><g clip-path="url(#178afa0aba)"><path fill="#ffffff" d="M 0.625 0.761719 L 245.878906 0.761719 L 245.878906 246.019531 L 0.625 246.019531 Z M 0.625 0.761719 " fill-opacity="1" fill-rule="nonzero"/></g></g></g></g></g></g><g clip-path="url(#068949ee03)"><g clip-path="url(#7874eb50a9)"><g transform="matrix(1, 0, 0, 1, 579, 307)"><g clip-path="url(#a69a228294)"><g clip-path="url(#dc82c4e991)"><g clip-path="url(#77785a6176)"><path fill="#ffffff" d="M 0.261719 0.5625 L 180.242188 0.5625 L 180.242188 180.542969 L 0.261719 180.542969 Z M 0.261719 0.5625 " fill-opacity="1" fill-rule="nonzero"/></g></g></g></g></g></g><g clip-path="url(#50054d6c46)"><g clip-path="url(#408a9c9d56)"><g transform="matrix(1, 0, 0, 1, 568, 299)"><g clip-path="url(#3b43249af4)"><g clip-path="url(#abe92400fe)"><g clip-path="url(#c4665c972f)"><path fill="#94c4ba" d="M 0.304688 0.441406 L 202.199219 0.441406 L 202.199219 202.339844 L 0.304688 202.339844 Z M 0.304688 0.441406 " fill-opacity="1" fill-rule="nonzero"/></g></g></g></g></g></g><g clip-path="url(#d08106ffdc)"><g clip-path="url(#672837d96d)"><g transform="matrix(1, 0, 0, 1, 595, 323)"><g clip-path="url(#2db7d5c249)"><g clip-path="url(#95bb5bcd8f)"><g clip-path="url(#0aaffcf973)"><path fill="#94c4ba" d="M 0.171875 0.976562 L 148.332031 0.976562 L 148.332031 149.136719 L 0.171875 149.136719 Z M 0.171875 0.976562 " fill-opacity="1" fill-rule="nonzero"/></g></g></g></g></g></g></g></g></svg>